<?xml version="1.0" encoding="utf-8" ?>
<svg baseProfile="full" height="200mm" version="1.1" viewBox="0,0,200,200" width="200mm" xmlns="http://www.w3.org/2000/svg" xmlns:ev="http://www.w3.org/2001/xml-events" xmlns:xlink="http://www.w3.org/1999/xlink"><defs /><rect fill="#1a1a1a" height="200" width="200" x="0" y="0" /><rect fill="#1a1a1a" height="200" width="180" x="10" y="0" /><text alignment-baseline="middle" fill="#e1ed5e" style="dominant-baseline: central; font-size:9.0px; font-family:Arial;" text-anchor="middle" x="100.0" y="100.0">2023</text><line stroke="#e1ed5e" stroke-width="0.3" x1="100.0" x2="100.0" y1="15.0" y2="10.0" /><path d="M 100.0 14.0 a86.0,86.0 0 0,1 42.46469731375804,11.215312516191453" fill="none" id="id13" stroke="none" /><text fill="#e1ed5e" style="font-size:6.75px; font-family:Arial;" text-anchor="middle"><textPath startOffset="22.20632615414155" xlink:href="#id13">January</textPath></text><line stroke="#e1ed5e" stroke-width="0.3" x1="143.23703022742887" x2="145.7803849466894" y1="26.81831364943548" y2="22.513508569990506" /><path d="M 143.74570117128098 25.957352633546492 a86.0,86.0 0 0,1 28.547481713284135,27.462654790039103" fill="none" id="id14" stroke="none" /><text fill="#e1ed5e" style="font-size:6.75px; font-family:Arial;" text-anchor="middle"><textPath startOffset="19.985693538727396" xlink:href="#id14">February</textPath></text><path d="M 114.68862486808459 84.99185889309783 l 0.44377741433234896 -0.45343074073785594 a21.634458690631302,21.634458690631302 0 0,0 0.2639035142523182,0.2627702286938581 l -0.4515167287519897 0.4457246613938792" fill="#ff0200" stroke="none" /><path d="M 114.94478906791727 85.2469230424477 l 0.42697271152872684 -0.4214954954085509 a21.59997012345607,21.59997012345607 0 0,0 0.2589278277628124,0.2668478869082058 l -0.43416480299464827 0.41408341295023077" fill="#ff0200" stroke="none" /><line stroke="#e1ed5e" stroke-width="0.3" x1="172.23445277983987" x2="176.4835382374775" y1="55.19839476539836" y2="52.563006222186495" /><path d="M 173.08426987136738 54.67131705675599 a86.0,86.0 0 0,1 12.851231095245387,41.99856678651699" fill="none" id="id15" stroke="none" /><text fill="#e1ed5e" style="font-size:6.75px; font-family:Arial;" text-anchor="middle"><textPath startOffset="22.20632615414155" xlink:href="#id15">March</textPath></text><path d="M 117.84615892207809 88.93136811851018 l 0.4988289679003276 -0.30938613970772016 a21.58698392027359,21.58698392027359 0 0,0 0.19313586863184398,0.3174645863733819 l -0.5040806348183955 0.30075378012725684" fill="#ff0200" stroke="none" /><path d="M 118.03404312379186 89.2402003453031 l 0.4988747113000352 -0.29764772710904414 a21.580921808015393,21.580921808015393 0 0,0 0.18758992819359727,0.3206519954515047 l -0.5039243139639598 0.2890163193036441" fill="#ff0100" stroke="none" /><path d="M 119.04729006885535 91.15688171328212 l 0.4801055898223619 -0.22289945213023912 a21.529325554964654,21.529325554964654 0 0,0 0.1531633978692154,0.33747524462707174 l -0.4838713046549243 0.21460219866110458" fill="#ff0100" stroke="none" /><path d="M 119.97218684219823 93.5106431181261 l 0.6006689575582586 -0.1951691752263659 a21.631580718145088,21.631580718145088 0 0,0 0.11201503716779461,0.3551182786911428 l -0.6039394784942593 0.1848007301088039" fill="#ff0200" stroke="none" /><line stroke="#e1ed5e" stroke-width="0.3" x1="184.98032266829074" x2="189.97916517819016" y1="98.17113171792111" y2="98.06355123074" /><path d="M 185.9800911702706 98.14961562048488 a86.0,86.0 0 0,1 -9.607161424134198,41.387399972396054" fill="none" id="id16" stroke="none" /><text fill="#e1ed5e" style="font-size:6.75px; font-family:Arial;" text-anchor="middle"><textPath startOffset="21.466115282336823" xlink:href="#id16">April</textPath></text><path d="M 120.64145759157962 103.86396538481128 l 0.568586690395409 0.10643624754719366 a21.57846304919738,21.57846304919738 0 0,0 -0.07148643431499128,0.3645077884606832 l -0.5666703231047536 -0.11620776307582181" fill="#ff0100" stroke="none" /><path d="M 119.67450827220406 107.3425965602758 l 0.4529109405330833 0.16902797610285294 a21.483424013429193,21.483424013429193 0 0,0 -0.13228236280260086,0.34534750717450535 l -0.44993429813697566 -0.17679905011050218" fill="#ff0000" stroke="none" /><line stroke="#e1ed5e" stroke-width="0.3" x1="174.80103733775053" x2="179.2010983576182" y1="140.37084112569926" y2="142.7455964860345" /><path d="M 175.68104954172406 140.8457921977663 a86.0,86.0 0 0,1 -30.038265399797805,32.042727171017184" fill="none" id="id17" stroke="none" /><text fill="#e1ed5e" style="font-size:6.75px; font-family:Arial;" text-anchor="middle"><textPath startOffset="22.206326154141568" xlink:href="#id17">May</textPath></text><path d="M 117.55443506779139 111.5257021239791 l 1.8252710948566766 1.1984168589638413 a23.183533269169043,23.183533269169043 0 0,0 -0.22189610441477198,0.33170456884127947 l -1.8043718850311834 -1.2296583420109275" fill="#ff1802" stroke="none" /><path d="M 116.498646956653 112.99209946851258 l 0.43886019666850457 0.34558684374957255 a21.558595147484034,21.558595147484034 0 0,0 -0.23209581924320402,0.28957522086953535 l -0.43284646537044663 -0.3530898981973582" fill="#ff0100" stroke="none" /><path d="M 115.32070863581623 114.36230785411682 l 0.4473484296987018 0.41936414418641493 a21.61317770913749,21.61317770913749 0 0,0 -0.2567783924910478,0.26923111794037896 l -0.44006348582868954 -0.427002378709301" fill="#ff0200" stroke="none" /><path d="M 112.63410532772338 116.77436683061366 l 0.3068732124123948 0.40743714746455406 a21.510074698088776,21.510074698088776 0 0,0 -0.29767385688971243,0.2202120029501668 l -0.29981438510411806 -0.41265909915448995" fill="#ff0000" stroke="none" /><path d="M 111.45004920935366 117.60387380957326 l 0.2642192414942817 0.4062237725167867 a21.484592159381044,21.484592159381044 0 0,0 -0.3117498193601542,0.19897348464784478 l -0.25718762008719703 -0.4107116859884404" fill="#ff0000" stroke="none" /><line stroke="#e1ed5e" stroke-width="0.3" x1="143.8653032363475" x2="146.44561519142675" y1="172.8068346515853" y2="177.08958963109032" /><path d="M 144.38136562736335 173.6633856474863 a86.0,86.0 0 0,1 -40.68145358897372,12.25698825130547" fill="none" id="id18" stroke="none" /><text fill="#e1ed5e" style="font-size:6.75px; font-family:Arial;" text-anchor="middle"><textPath startOffset="21.466115282336833" xlink:href="#id18">June</textPath></text><path d="M 107.2578585660854 119.70592522655815 l 0.37362852986081946 1.0144446609018585 a22.081062555247495,22.081062555247495 0 0,0 -0.3577977937172347,0.128293558991248 l -0.35611117551384996 -1.0207257609330667" fill="#ff0901" stroke="none" /><line stroke="#e1ed5e" stroke-width="0.3" x1="102.19456741930631" x2="102.32365962044197" y1="184.97166512339345" y2="189.96999836594603" /><path d="M 102.22038585953345 185.97133177190398 a86.0,86.0 0 0,1 -42.740103519485714,-10.115201625700543" fill="none" id="id19" stroke="none" /><text fill="#e1ed5e" style="font-size:6.75px; font-family:Arial;" text-anchor="middle"><textPath startOffset="22.20632615414155" xlink:href="#id19">July</textPath></text><path d="M 99.81925306533755 120.99922214144158 l -0.021037257051927764 2.444113560791802 a23.444204096271555,23.444204096271555 0 0,0 -0.4035085904179036,-0.006946766317193711 l 0.0631055373624993 -2.4433893171954484" fill="#ff1c02" stroke="none" /><path d="M 94.81253420990036 120.34920634021253 l -0.8588252830462967 3.368969281350159 a24.47671323026225,24.47671323026225 0 0,0 -0.40737358107329147,-0.10759106532231809 l 0.9166893069310773 -3.3536868667242596" fill="#ff2b04" stroke="none" /><path d="M 92.06813273071674 119.44442032107085 l -0.20459707061105242 0.5015554726725275 a21.54168058251186,21.54168058251186 0 0,0 -0.34213168022176366,-0.14301107008039857 l 0.21320021033027836 -0.49795935957215587" fill="#ff0100" stroke="none" /><path d="M 91.40352486487194 119.15986991738527 l -2.9851703469028066 6.6533636902146025 a28.292358356135132,28.292358356135132 0 0,0 -0.44261643786702254,-0.20318349765937957 l 3.099254780537249 -6.600993122221148" fill="#ff6008" stroke="none" /><path d="M 91.07499286063937 119.00905698771935 l -1.3512165818224786 2.8779083989007184 a24.179330590463238,24.179330590463238 0 0,0 -0.37522559693648555,-0.18013108895148974 l 1.4005548467592062 -2.8542230334496663" fill="#ff2703" stroke="none" /><line stroke="#e1ed5e" stroke-width="0.3" x1="58.666819895761336" x2="56.23545636021788" y1="174.27360380694188" y2="178.64263932499728" /><path d="M 58.180547188652646 175.14741091055294 a86.0,86.0 0 0,1 -31.652253787137756,-30.449443065178592" fill="none" id="id20" stroke="none" /><text fill="#e1ed5e" style="font-size:6.75px; font-family:Arial;" text-anchor="middle"><textPath startOffset="22.20632615414155" xlink:href="#id20">August</textPath></text><path d="M 87.95078237400918 117.19931262002967 l -1.1828475734873316 1.688422089278948 a23.061527960923634,23.061527960923634 0 0,0 -0.32316083128326706,-0.2305666726683761 l 1.2117357326194855 -1.6678111547663526" fill="#ff1702" stroke="none" /><path d="M 83.95833913139862 113.55231037782056 l -3.106910568006856 2.6247791097600195 a25.067229849987,25.067229849987 0 0,0 -0.2756249354261974,-0.332007990386466 l 3.1516315033265894 -2.5709098622597923" fill="#ff3304" stroke="none" /><path d="M 82.44556493220864 111.52570212397912 l -6.053769139380287 3.9747186143207114 a28.241996192759334,28.241996192759334 0 0,0 -0.26331645252696523,-0.4086729818133455 l 6.1212904552842975 -3.869924032585917" fill="#ff5f08" stroke="none" /><line stroke="#e1ed5e" stroke-width="0.3" x1="26.63291911575756" x2="22.317208475507996" y1="142.92168965132927" y2="145.44649492493687" /><path d="M 25.769776987707644 143.4266507060508 a86.0,86.0 0 0,1 -11.730757126820373,-40.83630448921669" fill="none" id="id21" stroke="none" /><text fill="#e1ed5e" style="font-size:6.75px; font-family:Arial;" text-anchor="middle"><textPath startOffset="21.46611528233685" xlink:href="#id21">September</textPath></text><path d="M 79.50377843672027 104.57218783832718 l -6.500515731361809 1.4501003942616932 a27.660292480598752,27.660292480598752 0 0,0 -0.0996639342717918,-0.46559672108565037 l 6.524513704358042 -1.337989853759879" fill="#ff5708" stroke="none" /><path d="M 79.0235259727143 100.99374915477108 l -62.92942208185711 2.9812474643132365 a84.0,84.0 0 0,0 -0.05599146859519655,-1.4448910119440128 l 62.97141568330351 -1.8975792053552267" fill="#4dd2ff" stroke="none" /><line stroke="#e1ed5e" stroke-width="0.3" x1="15.007084014347285" x2="10.007500721073583" y1="101.09737516637583" y2="101.16192664675087" /><path d="M 14.007167355692545 101.11028546245083 a86.0,86.0 0 0,1 10.666146001902534,-42.60595125391555" fill="none" id="id22" stroke="none" /><text fill="#e1ed5e" style="font-size:6.75px; font-family:Arial;" text-anchor="middle"><textPath startOffset="22.20632615414155" xlink:href="#id22">October</textPath></text><path d="M 79.00175016825051 100.2711162175752 l -20.697684552451378 0.26723550740599156 a41.69940966909933,41.69940966909933 0 0,0 -0.003089137364206766,-0.7178067314229248 l 20.699217987105087 0.08908070222060861" fill="#f3ff19" stroke="none" /><path d="M 79.01574976396665 99.18683210126434 l -5.343554302293803 -0.2070699107616764 a26.347564915875772,26.347564915875772 0 0,0 0.02146246512115681,-0.4530387170786673 l 5.339198228939146 0.2990197344633528" fill="#ff4506" stroke="none" /><path d="M 79.21141760316559 97.0276538004421 l -7.446480027970326 -1.0646958118025311 a28.522209913225687,28.522209913225687 0 0,0 0.07367437113712404,-0.4854220542631396 l 7.427049763393899 1.192716978457763" fill="#ff6309" stroke="none" /><path d="M 79.46518482838121 95.60439243477599 l -12.079150775642722 -2.585618915347218 a33.35278546062027,33.35278546062027 0 0,0 0.12500244880322126,-0.560361467467788 l 12.032853939837462 2.7931585523649654" fill="#ffa30f" stroke="none" /><line stroke="#e1ed5e" stroke-width="0.3" x1="26.266209847984243" x2="21.928928074336255" y1="57.711370442889674" y2="55.22380399835377" /><path d="M 25.398753493254645 57.213857153982495 a86.0,86.0 0 0,1 29.58750427330803,-30.492523968695096" fill="none" id="id23" stroke="none" /><text fill="#e1ed5e" style="font-size:6.75px; font-family:Arial;" text-anchor="middle"><textPath startOffset="21.46611528233685" xlink:href="#id23">November</textPath></text><path d="M 84.31358615837235 86.03803664274999 l -10.608028281215454 -9.441858645980613 a35.20137171915959,35.20137171915959 0 0,0 0.40675412889012286,-0.44914806840176613 l 10.443930511709286 9.623059501651936" fill="#ffbb11" stroke="none" /><path d="M 85.05521093208273 85.24692304244772 l -5.004488909230654 -4.9402912062234945 a28.03216797615798,28.03216797615798 0 0,0 0.3419446609137131,-0.3404762418700943 l 4.918708448149627 5.025703298743698" fill="#ff5c08" stroke="none" /><line stroke="#e1ed5e" stroke-width="0.3" x1="56.762969772571076" x2="54.21961505331055" y1="26.818313649435495" y2="22.513508569990535" /><path d="M 56.25429882871897 25.957352633546506 a86.0,86.0 0 0,1 42.265352541879196,-11.944610805530505" fill="none" id="id24" stroke="none" /><text fill="#e1ed5e" style="font-size:6.75px; font-family:Arial;" text-anchor="middle"><textPath startOffset="22.20632615414155" xlink:href="#id24">December</textPath></text></svg>