<?xml version="1.0" encoding="utf-8" ?>
<svg baseProfile="full" height="200mm" version="1.1" viewBox="0,0,200,200" width="200mm" xmlns="http://www.w3.org/2000/svg" xmlns:ev="http://www.w3.org/2001/xml-events" xmlns:xlink="http://www.w3.org/1999/xlink"><defs /><rect fill="#1a1a1a" height="200" width="200" x="0" y="0" /><rect fill="#1a1a1a" height="200" width="180" x="10" y="0" /><text alignment-baseline="middle" fill="#e1ed5e" style="dominant-baseline: central; font-size:9.0px; font-family:Arial;" text-anchor="middle" x="100.0" y="100.0">2025</text><line stroke="#e1ed5e" stroke-width="0.3" x1="100.0" x2="100.0" y1="15.0" y2="10.0" /><path d="M 100.0 14.0 a86.0,86.0 0 0,1 42.46469731375804,11.215312516191453" fill="none" id="id37" stroke="none" /><text fill="#e1ed5e" style="font-size:6.75px; font-family:Arial;" text-anchor="middle"><textPath startOffset="22.20632615414155" xlink:href="#id37">January</textPath></text><path d="M 101.08401301168833 79.027996857942 l 0.12390098314263372 -2.3970669906667923 a23.40026698751786,23.40026698751786 0 0,0 0.4020811617324767,0.024254633711726883 l -0.16514419371472236 2.394579087574761" fill="#ff2003" stroke="none" /><path d="M 102.16513564639614 79.11191278185805 l 0.1588276032612248 -1.532284979507433 a22.540494552402507,22.540494552402507 0 0,0 0.3855855315514587,0.0433250271861354 l -0.18517983832240875 1.5293239988506968" fill="#ff1402" stroke="none" /><path d="M 103.2404852339499 79.25152402106235 l 0.251709628813592 -1.6116694908497342 a22.631207002490278,22.631207002490278 0 0,0 0.38437574131493596,0.06342529077540418 l -0.27941457626740307 1.6070979371347054" fill="#ff1502" stroke="none" /><path d="M 103.95276090670814 79.375362276772 l 0.12355667620627118 -0.6446915827152246 a21.656424777913664,21.656424777913664 0 0,0 0.36551259010195486,0.07331838701053256 l -0.1346356757753514 0.6424692396274837" fill="#ff0701" stroke="none" /><path d="M 104.307194497241 79.44645832069477 l 0.20813120934881715 -0.9931832632251232 a22.0147569140713,22.0147569140713 0 0,0 0.3702224561997955,0.08091628935556722 l -0.2251963897021406 0.9894534757736855" fill="#ff0c01" stroke="none" /><line stroke="#e1ed5e" stroke-width="0.3" x1="143.23703022742887" x2="145.7803849466894" y1="26.81831364943548" y2="22.513508569990506" /><path d="M 143.74570117128098 25.957352633546492 a86.0,86.0 0 0,1 28.547481713284135,27.462654790039103" fill="none" id="id38" stroke="none" /><text fill="#e1ed5e" style="font-size:6.75px; font-family:Arial;" text-anchor="middle"><textPath startOffset="19.985693538727396" xlink:href="#id38">February</textPath></text><path d="M 111.90073688211348 82.69761687909136 l 1.421597560142289 -2.066848958428751 a23.50854624034729,23.50854624034729 0 0,0 0.33143564263926995,0.23219184832537731 l -1.4569643423652099 2.042072267339438" fill="#ff2103" stroke="none" /><path d="M 112.19680574252982 82.90503203632743 l 5.62902133191148 -7.8896017012317365 a30.69183657307495,30.69183657307495 0 0,0 0.42742720740475487,0.31054404380612044 l -5.763993855670024 7.791538422608942" fill="#ff840c" stroke="none" /><path d="M 113.34407831869373 83.78471172551755 l 1.13002497883401 -1.373169457757884 a22.778356210804766,22.778356210804766 0 0,0 0.30061189258500093,0.2517538149047187 l -1.1534944083781282 1.353514485459346" fill="#ff1702" stroke="none" /><path d="M 114.16331599549186 84.49514656593476 l 1.4761485768845068 -1.6159681347774262 a23.188690849264507,23.188690849264507 0 0,0 0.2923896439049438,0.2717443082350926 l -1.5037461045842975 1.5903192404676931" fill="#ff1d02" stroke="none" /><path d="M 114.42810811169701 84.74124197986012 l 1.3803232690436114 -1.4597907493380726 a23.009049864716218,23.009049864716218 0 0,0 0.2854401446817141,0.2745931930298787 l -1.4052466573377438 1.435814469545892" fill="#ff1a02" stroke="none" /><path d="M 115.19652480421416 85.50635884689758 l 1.2456280820394465 -1.1880141455960032 a22.72132708364839,22.72132708364839 0 0,0 0.26749783539406874,0.2853480400511922 l -1.2658932394039781 1.166396688666756" fill="#ff1602" stroke="none" /><path d="M 115.68641384162765 86.03803664274999 l 1.3402023436635324 -1.1928702253076122 a22.794179950948806,22.794179950948806 0 0,0 0.258342871018881,0.29533056065542024 l -1.3605370782602615 1.1696241084492442" fill="#ff1702" stroke="none" /><path d="M 117.2510076193507 88.02491185347247 l 1.2737470541603193 -0.8841937576353415 a22.550558015368466,22.550558015368466 0 0,0 0.21860675702127919,0.3207784412717261 l -1.288778276850332 0.862137293093209" fill="#ff1402" stroke="none" /><line stroke="#e1ed5e" stroke-width="0.3" x1="172.23445277983987" x2="176.4835382374775" y1="55.19839476539836" y2="52.563006222186495" /><path d="M 173.08426987136738 54.67131705675599 a86.0,86.0 0 0,1 12.851231095245387,41.99856678651699" fill="none" id="id39" stroke="none" /><text fill="#e1ed5e" style="font-size:6.75px; font-family:Arial;" text-anchor="middle"><textPath startOffset="22.20632615414155" xlink:href="#id39">March</textPath></text><path d="M 118.73160827565052 90.50648371742162 l 2.287227662725077 -1.1592081543937878 a23.56421019543014,23.56421019543014 0 0,0 0.1802549724074793,0.3633830250659684 l -2.306842648085965 1.1196655408288694" fill="#ff2203" stroke="none" /><path d="M 119.04729006885535 91.15688171328212 l 2.686219401451408 -1.2471357250947162 a23.961608041173154,23.961608041173154 0 0,0 0.17046708205636682,0.37560161904320255 l -2.707288800471122 1.200712097209451" fill="#ff2803" stroke="none" /><path d="M 120.6074358757038 95.95851677861258 l 0.5707519664368702 -0.11193457108596792 a21.581624582867466,21.581624582867466 0 0,0 0.06835648266564831,0.36516306372693735 l -0.5725941730123778 0.10209342989646779" fill="#ff0601" stroke="none" /><path d="M 120.67395015179393 96.31383870115 l 0.38157024950363827 -0.06803390141630956 a21.387588012002684,21.387588012002684 0 0,0 0.06150269650558267,0.36299239624397966 l -0.38268480752944395 0.06145571685649203" fill="#ff0300" stroke="none" /><line stroke="#e1ed5e" stroke-width="0.3" x1="184.98032266829074" x2="189.97916517819016" y1="98.17113171792111" y2="98.06355123074" /><path d="M 185.9800911702706 98.14961562048488 a86.0,86.0 0 0,1 -9.607161424134198,41.387399972396054" fill="none" id="id40" stroke="none" /><text fill="#e1ed5e" style="font-size:6.75px; font-family:Arial;" text-anchor="middle"><textPath startOffset="21.466115282336823" xlink:href="#id40">April</textPath></text><path d="M 120.89721153311464 102.0752229133903 l 1.3551191641486655 0.13457175065483382 a22.36178467648791,22.36178467648791 0 0,0 -0.04133490549858599,0.3827098886642888 l -1.3526019571490278 -0.15787796120391404" fill="#ff1101" stroke="none" /><path d="M 120.81339534386255 102.79330883721812 l 1.6966900980997297 0.22770813539752371 a22.711901949270427,22.711901949270427 0 0,0 -0.05533695316439634,0.3870265215468281 l -1.692519093918732 -0.25688012892476114" fill="#ff1602" stroke="none" /><path d="M 120.13307415673323 105.97154293290107 l 2.756979188913034 0.8177300427914537 a23.87569411985755,23.87569411985755 0 0,0 -0.12025758217684202,0.39300873661105745 l -2.7424948342300595 -0.8650657519545683" fill="#ff2703" stroke="none" /><line stroke="#e1ed5e" stroke-width="0.3" x1="174.80103733775053" x2="179.2010983576182" y1="140.37084112569926" y2="142.7455964860345" /><path d="M 175.68104954172406 140.8457921977663 a86.0,86.0 0 0,1 -30.038265399797805,32.042727171017184" fill="none" id="id41" stroke="none" /><text fill="#e1ed5e" style="font-size:6.75px; font-family:Arial;" text-anchor="middle"><textPath startOffset="22.206326154141568" xlink:href="#id41">May</textPath></text><path d="M 118.12598468904814 110.60418214915192 l 5.615902299576395 3.285451904443629 a27.506347120681443,27.506347120681443 0 0,0 -0.24260483459205745,0.4066196573803017 l -5.558516589286111 -3.381633655710035" fill="#ff5908" stroke="none" /><path d="M 117.94076556474637 110.91462005526583 l 3.8624360585707276 2.349789473304114 a25.521053292696095,25.521053292696095 0 0,0 -0.23155538500842726,0.373341009473267 l -3.8214160338943377 -2.4159268141426544" fill="#ff3e05" stroke="none" /><path d="M 117.75023020441432 111.22182372390056 l 2.781718296591504 1.7586223961273262 a24.29100431688452,24.29100431688452 0 0,0 -0.2264790718539555,0.3515005489579023 l -2.751034361360498 -1.8062445450066813" fill="#ff2c04" stroke="none" /><path d="M 114.29624159901734 115.38237550388516 l 0.9458593650915944 1.0177195052932921 a22.38938940905201,22.38938940905201 0 0,0 -0.284558958116086,0.2599378614112681 l -0.9282008575086445 -1.0338501332911432" fill="#ff1101" stroke="none" /><path d="M 112.63410532772338 116.77436683061366 l 1.0158002262881298 1.3486832015708632 a22.68843018153741,22.68843018153741 0 0,0 -0.313980895636373,0.23227556036870947 l -0.9924343602331926 -1.3659687106793417" fill="#ff1602" stroke="none" /><line stroke="#e1ed5e" stroke-width="0.3" x1="143.8653032363475" x2="146.44561519142675" y1="172.8068346515853" y2="177.08958963109032" /><path d="M 144.38136562736335 173.6633856474863 a86.0,86.0 0 0,1 -40.68145358897372,12.25698825130547" fill="none" id="id42" stroke="none" /><text fill="#e1ed5e" style="font-size:6.75px; font-family:Arial;" text-anchor="middle"><textPath startOffset="21.466115282336833" xlink:href="#id42">June</textPath></text><path d="M 110.5260780823613 118.17145234162733 l 1.7984943902338848 3.1047893472862995 a24.588077335109325,24.588077335109325 0 0,0 -0.3680615442537397,0.20899495064351728 l -1.744784079058946 -3.135287463724445" fill="#ff3104" stroke="none" /><line stroke="#e1ed5e" stroke-width="0.3" x1="102.19456741930631" x2="102.32365962044197" y1="184.97166512339345" y2="189.96999836594603" /><path d="M 102.22038585953345 185.97133177190398 a86.0,86.0 0 0,1 -42.740103519485714,-10.115201625700543" fill="none" id="id43" stroke="none" /><text fill="#e1ed5e" style="font-size:6.75px; font-family:Arial;" text-anchor="middle"><textPath startOffset="22.20632615414155" xlink:href="#id43">July</textPath></text><path d="M 95.51606077576429 120.51570834832081 l -0.10958856836100986 0.5014089162164583 a21.513245122311726,21.513245122311726 0 0,0 -0.3610945441327221,-0.08218394262170213 l 0.11820326188659458 -0.49944824001706944" fill="#ff0500" stroke="none" /><path d="M 94.81253420990036 120.34920634021253 l -0.4280787129263457 1.6792519530087335 a22.7329565794169,22.7329565794169 0 0,0 -0.37835169465036395,-0.09992612134220191 l 0.4569208503881989 -1.6716344823629499" fill="#ff1602" stroke="none" /><path d="M 94.46302465271185 120.25689768951611 l -0.4913924526710789 1.7977480510245822 a22.86369648749596,22.86369648749596 0 0,0 -0.3787413042817077,-0.10703607573464469 l 0.5222649250574005 -1.7890231819514162" fill="#ff1802" stroke="none" /><path d="M 94.11515582081647 120.15858648285463 l -0.5640868939910425 1.9322847113924642 a23.01293771136951,23.01293771136951 0 0,0 -0.37930255493108583,-0.11428074833443322 l 0.5972644233623742 -1.9222885939523053" fill="#ff1a02" stroke="none" /><path d="M 90.10565033884886 118.52300852407294 l -0.3408463722206777 0.6380914839539256 a21.723420342090627,21.723420342090627 0 0,0 -0.32831038403658563,-0.17902099837861185 l 0.3517795681259039 -0.6321298338155479" fill="#ff0801" stroke="none" /><line stroke="#e1ed5e" stroke-width="0.3" x1="58.666819895761336" x2="56.23545636021788" y1="174.27360380694188" y2="178.64263932499728" /><path d="M 58.180547188652646 175.14741091055294 a86.0,86.0 0 0,1 -31.652253787137756,-30.449443065178592" fill="none" id="id44" stroke="none" /><text fill="#e1ed5e" style="font-size:6.75px; font-family:Arial;" text-anchor="middle"><textPath startOffset="22.20632615414155" xlink:href="#id44">August</textPath></text><path d="M 89.4739219176387 118.17145234162733 l -0.863657740426413 1.49095563863759 a22.72303610205465,22.72303610205465 0 0,0 -0.33676851917816203,-0.19896877715554676 l 0.8891941306329572 -1.4758682891882935" fill="#ff1602" stroke="none" /><path d="M 87.07902340077011 116.55440617244103 l -0.3934806061836639 0.5041289043222106 a21.639509921436545,21.639509921436545 0 0,0 -0.2916619592633812,-0.23171389994669422 l 0.40210005816440314 -0.49728109037038576" fill="#ff0701" stroke="none" /><path d="M 85.18274418774928 114.88116024355367 l -1.2226268553979176 1.227899847568661 a22.732788060669666,22.732788060669666 0 0,0 -0.27491450698250974,-0.2784869441395296 l 1.2435819874359606 -1.2066724094484667" fill="#ff1602" stroke="none" /><path d="M 84.9287848128048 114.62390073753433 l -2.4575942631671 2.38465273777157 a24.424374138746128,24.424374138746128 0 0,0 -0.2901772063945893,-0.30424964079154354 l 2.4982780209406465 -2.341995980397526" fill="#ff2e04" stroke="none" /><path d="M 84.67929136418377 114.36230785411682 l -6.763342597845578 6.340255586222452 a30.270471616614635,30.270471616614635 0 0,0 -0.35308860734062325,-0.3832079474213585 l 6.87147761318193 -6.222896383999749" fill="#ff7e0b" stroke="none" /><path d="M 83.72743513129214 113.27417163493432 l -0.42448805475872675 0.3462716136828756 a21.54780848758977,21.54780848758977 0 0,0 -0.231979692072204,-0.28943033436834337 l 0.43038565888579167 -0.3389134457362726" fill="#ff0500" stroke="none" /><path d="M 83.50135304334701 112.99209946851258 l -4.1663391819759665 3.2808443755423036 a26.303048368230836,26.303048368230836 0 0,0 -0.27705023740171764,-0.358124778589557 l 4.222196236595753 -3.208641602839494" fill="#ff4806" stroke="none" /><path d="M 83.06392112726016 112.41649034213515 l -1.068351122148163 0.7832492686080609 a22.324708849887514,22.324708849887514 0 0,0 -0.22454426849654066,-0.3118723497449794 l 1.081675183020311 -0.7647433134119432" fill="#ff1101" stroke="none" /><path d="M 82.85270091963577 112.12312394758628 l -0.1406069741229132 0.09940899538744885 a21.172198924317033,21.172198924317033 0 0,0 -0.20782942284007422,-0.29939378425193697 l 0.14229730412512126 -0.09697394894849931" fill="#ff0000" stroke="none" /><path d="M 82.24976979558568 111.22182372390057 l -0.7629721803898143 0.4823565224773977 a21.902659605180865,21.902659605180865 0 0,0 -0.19872529238586872,-0.3204084468366379 l 0.771162112443639 -0.4691517442754956" fill="#ff0b01" stroke="none" /><path d="M 82.05923443525364 110.91462005526583 l -0.6771937854437863 0.4119842514652818 a21.792667929526036,21.792667929526036 0 0,0 -0.19221042238600183,-0.3221557238417791 l 0.68418508352802 -0.40026643373739157" fill="#ff0901" stroke="none" /><line stroke="#e1ed5e" stroke-width="0.3" x1="26.63291911575756" x2="22.317208475507996" y1="142.92168965132927" y2="145.44649492493687" /><path d="M 25.769776987707644 143.4266507060508 a86.0,86.0 0 0,1 -11.730757126820373,-40.83630448921669" fill="none" id="id45" stroke="none" /><text fill="#e1ed5e" style="font-size:6.75px; font-family:Arial;" text-anchor="middle"><textPath startOffset="21.46611528233685" xlink:href="#id45">September</textPath></text><path d="M 81.69416730710424 110.29060199501025 l -2.968877829509052 1.6689511276449163 a24.40582345887417,24.40582345887417 0 0,0 -0.20271196942805905,-0.3679811061836948 l 2.9971662083886277 -1.617599503063399" fill="#ff2e04" stroke="none" /><path d="M 81.51974371655577 109.97397251340807 l -0.4736326267580387 0.2556240956988239 a21.538211430045443,21.538211430045443 0 0,0 -0.17327746659182225,-0.3277756654734713 l 0.477962601574747 -0.24743341513922637" fill="#ff0500" stroke="none" /><path d="M 81.35079622478065 109.6543875284942 l -0.49307617497044093 0.255257464694428 a21.55523012130621,21.55523012130621 0 0,0 -0.1677421133089044,-0.33097110325688617 l 0.49739695806561207 -0.24673214973485683" fill="#ff0600" stroke="none" /><path d="M 81.02952815118164 109.00673069616217 l -3.433141741292051 1.6299743808162988 a24.800431383135248,24.800431383135248 0 0,0 -0.17977405570644525,-0.38721732254087854 l 3.4606904138383228 -1.570636990996593" fill="#ff3404" stroke="none" /><path d="M 80.58989483394504 108.01547362559985 l -1.190617684630493 0.49166990944584016 a22.28814198394795,22.28814198394795 0 0,0 -0.14338427214721552,-0.35586800461081225 l 1.1989045710350963 -0.47110253699222254" fill="#ff1001" stroke="none" /><path d="M 80.45479744820244 107.68017299344265 l -0.3220000323022069 0.12652802883066716 a21.345967285855753,21.345967285855753 0 0,0 -0.13143598465099837,-0.3431378808978707 l 0.3241302965467144 -0.12096658109963865" fill="#ff0300" stroke="none" /><path d="M 80.32549172779594 107.34259656027581 l -0.7982102858947734 0.29789492161631326 a21.851986528551365,21.851986528551365 0 0,0 -0.12848524691032195,-0.35353621727942747 l 0.8032197938103197 -0.28411090733076866" fill="#ff0a01" stroke="none" /><path d="M 80.20201598880116 107.00284435728193 l -1.6050129408333147 0.5677171882612533 a22.702459792796784,22.702459792796784 0 0,0 -0.12714368722740932,-0.3695390697236022 l 1.6145474590039524 -0.5400054154483542" fill="#ff1602" stroke="none" /><path d="M 79.58551787078972 104.9243191809786 l -0.4969723905402514 0.11987816588560302 a21.51122630176409,21.51122630176409 0 0,0 -0.08372930781171208,-0.3607036666532787 l 0.4989622642825186 -0.11130584188375006" fill="#ff0500" stroke="none" /><path d="M 79.35854240842038 103.8639653848113 l -1.269294475067663 0.2376048248062867 a22.291342137935768,22.291342137935768 0 0,0 -0.06735547446125617,-0.3777652708515208 l 1.2731963918681077 -0.21572080322155224" fill="#ff1001" stroke="none" /><path d="M 79.18660465613746 102.79330883721812 l -0.5058062939635494 0.06788287867051729 a21.510341152788737,21.510341152788737 0 0,0 -0.04609204226004315,-0.3673989271774398 l 0.5068998454704406 -0.05916619720566886" fill="#ff0500" stroke="none" /><path d="M 79.0095281055655 100.63252640178507 l -1.31050821601831 0.039490824720697495 a22.31110308881057,22.31110308881057 0 0,0 -0.008263541012052626,-0.38397427986916444 l 1.31099381971537 -0.01692672906140422" fill="#ff1001" stroke="none" /><line stroke="#e1ed5e" stroke-width="0.3" x1="15.007084014347285" x2="10.007500721073583" y1="101.09737516637583" y2="101.16192664675087" /><path d="M 14.007167355692545 101.11028546245083 a86.0,86.0 0 0,1 10.666146001902534,-42.60595125391555" fill="none" id="id46" stroke="none" /><text fill="#e1ed5e" style="font-size:6.75px; font-family:Arial;" text-anchor="middle"><textPath startOffset="22.20632615414155" xlink:href="#id46">October</textPath></text><path d="M 79.00175016825051 100.2711162175752 l -56.970765947811174 0.7355707594629537 a77.97551436382525,77.97551436382525 0 0,0 -0.005776510430866651,-1.3422575892721902 l 56.97498675553154 0.2451963080129119" fill="#46fff4" stroke="none" /><path d="M 79.00019446554 99.90962569577889 l -35.99779032658855 -0.15491930384425204 a56.99812367871048,56.99812367871048 0 0,0 0.01266713511962431,-0.9810835746875575 l 35.989790184351214 0.7745391365922814" fill="#4bff2c" stroke="none" /><path d="M 79.00486145842228 99.54816195383935 l -1.4816482337057588 -0.03188666946346703 a22.48199131176025,22.48199131176025 0 0,0 0.011656704316570413,-0.38682926696528036 l 1.4808798349335435 0.05738608385374181" fill="#ff1302" stroke="none" /><path d="M 79.01574976396665 99.18683210126434 l -10.129130438880882 -0.3925174176993181 a31.136732874603165,31.136732874603165 0 0,0 0.02536367385151708,-0.5353870674793062 l 10.120873156795867 0.5668155918016333" fill="#ff890c" stroke="none" /><path d="M 79.03285615573316 98.82574320788736 l -62.90143153280056 -3.522770376337934 a84.0,84.0 0 0,0 0.09327763598234728,-1.442963742987953 l 62.831473305813795 4.604993183578899" fill="#4dd2ff" stroke="none" /><path d="M 79.3925641242962 95.95851677861259 l -0.3365132801106233 -0.06599621532461411 a21.342923735148187,21.342923735148187 0 0,0 0.0738065785180493,-0.3599070887268521 l 0.33532740567757946 0.07177896021486872" fill="#ff0200" stroke="none" /><path d="M 79.62865764111835 94.90015583598534 l -1.2647616765595004 -0.31662554884407007 a22.303792098716052,22.303792098716052 0 0,0 0.09644124456026064,-0.37162745615027404 l 1.2591241001289324 0.33834943054320793" fill="#ff1001" stroke="none" /><path d="M 79.81627453868168 94.20196356495316 l -0.8184082635520835 -0.23509836872842937 a21.85150650545319,21.85150650545319 0 0,0 0.10696219085646477,-0.3606233338146143 l 0.8142401755839118 0.24915108928958288" fill="#ff0a01" stroke="none" /><path d="M 80.02781315780177 93.51064311812611 l -0.9138838287056236 -0.29693885601519643 a21.9609143232262,21.9609143232262 0 0,0 0.11990942226416007,-0.3585139102104937 l 0.9086371126696912 0.3126258691480123" fill="#ff0b01" stroke="none" /><path d="M 80.2630227832202 92.82701384747504 l -1.0054735980710596 -0.36541807372415225 a22.069816584757515,22.069816584757515 0 0,0 0.1328344547106681,-0.35593029748873756 l 0.999034554858764 0.38267150824223123" fill="#ff0d01" stroke="none" /><path d="M 80.65960295795068 91.81776055985345 l -2.7762216521667673 -1.1745214044758174 a24.014449732792276,24.014449732792276 0 0,0 0.1643380726008668,-0.37931492945949097 l 2.7555928697232197 1.2221354785219076" fill="#ff2803" stroke="none" /><path d="M 80.95270993114464 91.15688171328213 l -0.4642296918246985 -0.21552872152269884 a21.51182207511289,21.51182207511289 0 0,0 0.158820559441923,-0.3345166024771209 l 0.460450938541024 0.22348773964035193" fill="#ff0500" stroke="none" /><path d="M 81.10775173730289 90.83032412892265 l -1.00971158481133 -0.4900807901340754 a22.122362091911807,22.122362091911807 0 0,0 0.16922552189926784,-0.34114832586760446 l 1.0011260499586494 0.5073887045006414" fill="#ff0e01" stroke="none" /><path d="M 81.43458229118936 90.18545643968196 l -1.5548117391394631 -0.821945823208505 a22.758702499132752,22.758702499132752 0 0,0 0.18607070911416276,-0.34476076474537654 l 1.5404329308068285 0.8485875712863542" fill="#ff1702" stroke="none" /><line stroke="#e1ed5e" stroke-width="0.3" x1="26.266209847984243" x2="21.928928074336255" y1="57.711370442889674" y2="55.22380399835377" /><path d="M 25.398753493254645 57.213857153982495 a86.0,86.0 0 0,1 29.58750427330803,-30.492523968695096" fill="none" id="id47" stroke="none" /><text fill="#e1ed5e" style="font-size:6.75px; font-family:Arial;" text-anchor="middle"><textPath startOffset="21.46611528233685" xlink:href="#id47">November</textPath></text><path d="M 81.96595687620814 89.24020034530311 l -2.4175712239213274 -1.4424154274110663 a23.81517546308679,23.81517546308679 0 0,0 0.213071201455035,-0.3502330318918731 l 2.3923842241800757 1.483816232510014" fill="#ff2603" stroke="none" /><path d="M 82.7489923806493 88.02491185347247 l -0.8386078132526842 -0.5821342559029928 a22.02085422874384,22.02085422874384 0 0,0 0.21883211327034482,-0.30952250516104307 l 0.8284630801784612 0.5964832613958222" fill="#ff0c01" stroke="none" /><path d="M 82.95767976084542 87.72973835380427 l -1.1492830157215812 -0.8274696819763694 a22.416177081023474,22.416177081023474 0 0,0 0.22815119651093926,-0.31119797563945223 l 1.1348692066970085 0.8471301012873222" fill="#ff1202" stroke="none" /><path d="M 83.39014120810768 87.1503855733568 l -0.4546412848469053 -0.35171672955871264 a21.574807233547666,21.574807233547666 0 0,0 0.22976750475021962,-0.2917813977773496 l 0.44851969950271464 0.35949052128910997" fill="#ff0600" stroke="none" /><path d="M 83.6137871275137 86.86637796730984 l -3.5198150006935087 -2.8211472781317153 a25.510872377269948,25.510872377269948 0 0,0 0.27758441936442324,-0.3402856761895814 l 3.4707320892526927 2.881317123929379" fill="#ff3d05" stroke="none" /><path d="M 84.07557802195018 86.31012108654704 l -0.8269132232349392 -0.7108792968199003 a22.090474600074643,22.090474600074643 0 0,0 0.2503672710592737,-0.2862130711797296 l 0.814554088597822 0.725007924202573" fill="#ff0d01" stroke="none" /><path d="M 84.31358615837235 86.03803664274999 l -0.9280331914386167 -0.8260119581183569 a22.24239339959864,22.24239339959864 0 0,0 0.2570122955396341,-0.2837993959941181 l 0.9136772552829376 0.841864141382031" fill="#ff0f01" stroke="none" /><path d="M 85.57189188830299 84.74124197986013 l -0.3822559615113977 -0.40426306576741294 a21.55637060171676,21.55637060171676 0 0,0 0.2718074756824253,-0.2526154259979898 l 0.37524060203411624 0.41078307784005025" fill="#ff0600" stroke="none" /><path d="M 86.65592168130627 83.78471172551755 l -0.7225618544869692 -0.8780335731571002 a22.137118546656712,22.137118546656712 0 0,0 0.29631756138285553,-0.23960152713314853 l 0.7073408945396132 0.890341197554383" fill="#ff0e01" stroke="none" /><path d="M 87.80319425747018 82.90503203632743 l -0.29659412341311314 -0.4157045004234901 a21.510664572606654,21.510664572606654 0 0,0 0.30326847365760873,-0.21245894640853805 l 0.2893945101718441 0.4207482895959707" fill="#ff0500" stroke="none" /><path d="M 88.39885842347998 82.49532879139004 l -0.470211369787118 -0.7094901283967111 a21.85116095691089,21.85116095691089 0 0,0 0.3153153473732842,-0.20508987299858575 l 0.45792899662954667 0.7174789255548318" fill="#ff0a01" stroke="none" /><line stroke="#e1ed5e" stroke-width="0.3" x1="56.762969772571076" x2="54.21961505331055" y1="26.818313649435495" y2="22.513508569990535" /><path d="M 56.25429882871897 25.957352633546506 a86.0,86.0 0 0,1 42.265352541879196,-11.944610805530505" fill="none" id="id48" stroke="none" /><text fill="#e1ed5e" style="font-size:6.75px; font-family:Arial;" text-anchor="middle"><textPath startOffset="22.20632615414155" xlink:href="#id48">December</textPath></text><path d="M 90.58718382345135 81.22770947309562 l -0.28183041665116415 -0.5620637183880554 a21.628763872433822,21.628763872433822 0 0,0 0.3342454921738867,-0.16401281139749074 l 0.27211365746685146 0.5668316899203757" fill="#ff0701" stroke="none" /><path d="M 95.33964822691252 79.52364482259891 l -0.07849788855338743 -0.34489899581772093 a21.353719148228382,21.353719148228382 0 0,0 0.3591057754085301,-0.07848661350928693 l 0.07254938899133637 0.3461991074228761" fill="#ff0300" stroke="none" /><path d="M 97.47563105711357 79.15227682838746 l -0.4700203174804072 -3.881704174612731 a24.91005708373296,24.91005708373296 0 0,0 0.42612009152145197,-0.047879557294183084 l 0.4031335224492372 3.8892196853775127" fill="#ff3505" stroke="none" /><path d="M 98.19473922651362 79.07773832637324 l -0.03235680501815088 -0.37500263200472156 a21.37639598409315,21.37639598409315 0 0,0 0.3668696585115606,-0.02847614633383884 l 0.025896957144256102 0.3755040405270226" fill="#ff0300" stroke="none" /><path d="M 98.91598698831166 79.02799685794201 l -0.04571903741310615 -0.8845094901454903 a21.885690277997572,21.885690277997572 0 0,0 0.37639131825650785,-0.016208201924297196 l 0.030486886767274183 0.8851654185939799" fill="#ff0a01" stroke="none" /><path d="M 99.27714615592234 79.0124445844662 l -0.03653518679425508 -1.0607735764893098 a22.061402562862938,22.061402562862938 0 0,0 0.3796382512601,-0.009804935988108547 l 0.018270300339276093 1.061245304619778" fill="#ff0d01" stroke="none" /><path d="M 99.63851952072746 79.00311137660856 l -0.018077179164930457 -1.0500277036120713 a22.050183299600313,22.050183299600313 0 0,0 0.3795576584374659,-0.0032669725968005633 l 2.5722072327470587e-16 1.050183299600313" fill="#ff0d01" stroke="none" /></svg>