<?xml version="1.0" encoding="utf-8" ?>
<svg baseProfile="full" height="200mm" version="1.1" viewBox="0,0,200,200" width="200mm" xmlns="http://www.w3.org/2000/svg" xmlns:ev="http://www.w3.org/2001/xml-events" xmlns:xlink="http://www.w3.org/1999/xlink"><defs /><rect fill="#1a1a1a" height="200" width="200" x="0" y="0" /><rect fill="#1a1a1a" height="200" width="180" x="10" y="0" /><text alignment-baseline="middle" fill="#e1ed5e" style="dominant-baseline: central; font-size:9.0px; font-family:Arial;" text-anchor="middle" x="100.0" y="100.0">2024</text><line stroke="#e1ed5e" stroke-width="0.3" x1="100.0" x2="100.0" y1="15.0" y2="10.0" /><path d="M 100.0 14.0 a86.0,86.0 0 0,1 42.35913384403234,11.155469271406648" fill="none" id="id25" stroke="none" /><text fill="#e1ed5e" style="font-size:6.75px; font-family:Arial;" text-anchor="middle"><textPath startOffset="22.145653131862478" xlink:href="#id25">January</textPath></text><line stroke="#e1ed5e" stroke-width="0.3" x1="143.13028292997686" x2="145.6673583964461" y1="26.7553504044142" y2="22.446841604673864" /><path d="M 143.63769802327073 25.89364864446614 a86.0,86.0 0 0,1 29.32050498858742,28.57503671076993" fill="none" id="id26" stroke="none" /><text fill="#e1ed5e" style="font-size:6.75px; font-family:Arial;" text-anchor="middle"><textPath startOffset="20.669276256404974" xlink:href="#id26">February</textPath></text><line stroke="#e1ed5e" stroke-width="0.3" x1="172.87174338648825" x2="177.1583165268699" y1="56.24261187166439" y2="53.66864786411523" /><path d="M 173.72905801456457 55.72781907015455 a86.0,86.0 0 0,1 12.242430191666344,42.057860355516425" fill="none" id="id27" stroke="none" /><text fill="#e1ed5e" style="font-size:6.75px; font-family:Arial;" text-anchor="middle"><textPath startOffset="22.145653131862474" xlink:href="#id27">March</textPath></text><path d="M 120.98066250479742 99.09900007780936 l 8.806395955412684 -0.37818453391509926 a29.814512650464657,29.814512650464657 0 0,0 0.01756971076599672,0.5115229587160101 l -8.811590353175529 0.2269553106349692" fill="#ff6e0a" stroke="none" /><path d="M 120.99303781780057 99.45929381324524 l 4.393331009866659 -0.11315662259619212 a25.39478802486461,25.39478802486461 0 0,0 0.007483684891869118,0.4358871267559176 l -4.394626126357195 0.03772257987120811" fill="#ff3004" stroke="none" /><line stroke="#e1ed5e" stroke-width="0.3" x1="184.99686870605535" x2="189.99668451229388" y1="99.2704041080226" y2="99.22748670261217" /><path d="M 185.99683186730306 99.26182062694052 a86.0,86.0 0 0,1 -10.086455211305974,41.156179273409016" fill="none" id="id28" stroke="none" /><text fill="#e1ed5e" style="font-size:6.75px; font-family:Arial;" text-anchor="middle"><textPath startOffset="21.40746469413373" xlink:href="#id28">April</textPath></text><path d="M 120.98066250479742 100.90099992219065 l 6.696589384671731 0.2875803618285303 a27.7027615093637,27.7027615093637 0 0,0 -0.024481867679877527,0.4749416926061118 l -6.6906659275352816 -0.40249384781137276" fill="#ff5007" stroke="none" /><line stroke="#e1ed5e" stroke-width="0.3" x1="174.33088141563837" x2="178.70328620479359" y1="141.23008692659167" y2="143.65538615756765" /><path d="M 175.20536237346943 141.71514677278685 a86.0,86.0 0 0,1 -30.301960400862466,31.631185727798858" fill="none" id="id29" stroke="none" /><text fill="#e1ed5e" style="font-size:6.75px; font-family:Arial;" text-anchor="middle"><textPath startOffset="22.145653131862474" xlink:href="#id29">May</textPath></text><path d="M 118.36410011445183 110.18625677009912 l 36.09611975610793 20.021909156910425 a62.27719355449034,62.27719355449034 0 0,0 -0.5265881759706266,0.930430850235614 l -35.747098215115926 -20.63859677724516" fill="#32ff49" stroke="none" /><path d="M 118.18653347947321 110.5 l 26.706750298157758 15.419149473821491 a51.838298947643,51.838298947643 0 0,0 -0.45155179522268674,0.7668336669397628 l -26.438124792805304 -15.875334309054804" fill="#84ff25" stroke="none" /><line stroke="#e1ed5e" stroke-width="0.3" x1="143.1302829299769" x2="145.66735839644613" y1="173.24464959558577" y2="177.55315839532614" /><path d="M 143.63769802327073 174.10635135553383 a86.0,86.0 0 0,1 -40.68552437913181,11.842963189579606" fill="none" id="id30" stroke="none" /><text fill="#e1ed5e" style="font-size:6.75px; font-family:Arial;" text-anchor="middle"><textPath startOffset="21.407464694133747" xlink:href="#id30">June</textPath></text><path d="M 110.34350942703117 118.27599006163325 l 21.610812881961635 38.184235654330486 a64.87554086190394,64.87554086190394 0 0,0 -0.9739233953919998,0.5402188900104332 l -20.95214529841354 -38.54958745977407" fill="#35ff67" stroke="none" /><path d="M 108.73861861582097 119.09545874513695 l 8.504511847040959 18.5838932058076 a41.43741198002628,41.43741198002628 0 0,0 -0.649356995379825,0.290449124545862 l -8.184241448805507 -18.72714608126331" fill="#fbff18" stroke="none" /><line stroke="#e1ed5e" stroke-width="0.3" x1="101.45913802915013" x2="101.54496967792366" y1="184.9874750549273" y2="189.98673829345242" /><path d="M 101.47630435890484 185.9873277026323 a86.0,86.0 0 0,1 -42.54439059252881,-10.42667462771756" fill="none" id="id31" stroke="none" /><text fill="#e1ed5e" style="font-size:6.75px; font-family:Arial;" text-anchor="middle"><textPath startOffset="22.145653131862474" xlink:href="#id31">July</textPath></text><path d="M 97.48249496171623 120.84855314841334 l -7.552515114851309 62.54565944524002 a84.0,84.0 0 0,0 -1.4300887124368238,-0.1851536151984119 l 8.625081649178927 -62.40679423384121" fill="#4dd2ff" stroke="none" /><path d="M 90.93487009805054 118.94263497670748 l -0.458491516677257 0.9580709305077412 a22.062127289334466,22.062127289334466 0 0,0 -0.3402187524822176,-0.16641804041815392 l 0.47487051842154404 -0.9500591399923661" fill="#ff0000" stroke="none" /><line stroke="#e1ed5e" stroke-width="0.3" x1="58.13341422392154" x2="55.67067388415222" y1="173.97424548756322" y2="178.32567169271397" /><path d="M 57.64086615596768 174.84453072859336 a86.0,86.0 0 0,1 -31.369924170532247,-30.572349798747897" fill="none" id="id32" stroke="none" /><text fill="#e1ed5e" style="font-size:6.75px; font-family:Arial;" text-anchor="middle"><textPath startOffset="22.145653131862474" xlink:href="#id32">August</textPath></text><path d="M 85.34317274990678 115.03919595460226 l -2.1508583024538894 2.206970098592212 a24.081705445579598,24.081705445579598 0 0,0 -0.29357672243422184,-0.29106753475587854 l 2.1884269450180738 -2.169722553607674" fill="#ff1d03" stroke="none" /><path d="M 85.08716467003676 114.78537596483092 l -2.550371407284861 2.5285734920506586 a24.591389455321913,24.591389455321913 0 0,0 -0.2946437221428476,-0.3023304156137544 l 2.5934019305785183 -2.4844203843691672" fill="#ff2503" stroke="none" /><path d="M 83.8745106332314 113.45245675266167 l -5.6218254305160675 4.689926721286602 a28.321224885375074,28.321224885375074 0 0,0 -0.3082336205052639,-0.37599489893077936 l 5.701505870259961 -4.592729540657327" fill="#ff5908" stroke="none" /><path d="M 83.20337586046588 112.60449989151573 l -3.7191338433922563 2.7909073713945953 a25.649851664383537,25.649851664383537 0 0,0 -0.2612595937612364,-0.3544488152949156 l 3.7664954567373234 -2.7266522468308003" fill="#ff3404" stroke="none" /><line stroke="#e1ed5e" stroke-width="0.3" x1="26.387840678322732" x2="22.057713659400548" y1="142.50000000000003" y2="145.00000000000006" /><path d="M 25.521815274538298 143.00000000000003 a86.0,86.0 0 0,1 -11.493303480769221,-40.785679425670985" fill="none" id="id33" stroke="none" /><text fill="#e1ed5e" style="font-size:6.75px; font-family:Arial;" text-anchor="middle"><textPath startOffset="21.40746469413373" xlink:href="#id33">September</textPath></text><path d="M 81.4637452351635 109.86951160357371 l -5.336302587410191 2.8412805593573687 a27.045576938670354,27.045576938670354 0 0,0 -0.2146799735996925,-0.4116771559929618 l 5.384290629984832 -2.7492571602599036" fill="#ff4706" stroke="none" /><path d="M 81.1358732173502 109.22738970284198 l -7.943031401459104 3.8853346888330647 a29.842373747406004,29.842373747406004 0 0,0 -0.2211472546099507,-0.4621127072074745 l 8.008557914028966 -3.748409479560485" fill="#ff6e0a" stroke="none" /><path d="M 80.41425534168474 107.57618678355246 l -12.12531702611352 4.6903331071777 a34.00086680341144,34.00086680341144 0 0,0 -0.2058984276717275,-0.5461700416040279 l 12.204046137599683 -4.481494785379528" fill="#ffa50f" stroke="none" /><path d="M 79.03789590574601 101.26102812881392 l -2.700530960487892 0.1624572365730013 a23.705413059454802,23.705413059454802 0 0,0 -0.020949275602804088,-0.4064103500504447 l 2.7029218255472687 -0.11607509314582584" fill="#ff1802" stroke="none" /><line stroke="#e1ed5e" stroke-width="0.3" x1="15.003131293944662" x2="10.003315487706104" y1="100.72959589197737" y2="100.7725132973878" /><path d="M 14.003168132696942 100.73817937305945 a86.0,86.0 0 0,1 10.791469493833604,-42.45332614584628" fill="none" id="id34" stroke="none" /><text fill="#e1ed5e" style="font-size:6.75px; font-family:Arial;" text-anchor="middle"><textPath startOffset="22.145653131862435" xlink:href="#id34">October</textPath></text><path d="M 79.00077361379809 99.81974689727619 l -2.8566626612226895 -0.024521013234039882 a23.856767900987744,23.856767900987744 0 0,0 0.007030439999524349,-0.4094878840438833 l 2.855820789624499 0.07355581324697556" fill="#ff1a02" stroke="none" /><path d="M 79.64726062577567 94.8264132398404 l -2.3781569833247356 -0.604518205450604 a23.453787459837837,23.453787459837837 0 0,0 0.10253830494206322,-0.38935464546650367 l 2.367429197577947 0.6452533552898922" fill="#ff1402" stroke="none" /><path d="M 80.68587082218212 91.75594674310238 l -8.411163745378559 -3.590225644189334 a30.145348310904588,30.145348310904588 0 0,0 0.2072365195662555,-0.47419771270999 l 8.348293343795326 3.734085426675191" fill="#ff720a" stroke="none" /><path d="M 81.29705330413844 90.45014215332179 l -8.22252970960072 -4.198482257565882 a30.232402075969286,30.232402075969286 0 0,0 0.23997607055092168,-0.46018575731234773 l 8.149245570074857 4.339014257982716" fill="#ff730a" stroke="none" /><path d="M 81.63589988554816 89.8137432299009 l -7.841577103035659 -4.34959063369468 a29.96712161976058,29.96712161976058 0 0,0 0.25338861647696515,-0.44771340608650556 l 7.765755121537325 4.483560809880291" fill="#ff700a" stroke="none" /><line stroke="#e1ed5e" stroke-width="0.3" x1="26.387840678322718" x2="22.05771365940052" y1="57.49999999999999" y2="54.99999999999999" /><path d="M 25.521815274538284 56.99999999999999 a86.0,86.0 0 0,1 29.574782752854787,-30.34633250058573" fill="none" id="id35" stroke="none" /><text fill="#e1ed5e" style="font-size:6.75px; font-family:Arial;" text-anchor="middle"><textPath startOffset="21.40746469413373" xlink:href="#id35">November</textPath></text><line stroke="#e1ed5e" stroke-width="0.3" x1="56.869717070023135" x2="54.33264160355391" y1="26.7553504044142" y2="22.446841604673864" /><path d="M 56.362301976729285 25.89364864446614 a86.0,86.0 0 0,1 42.16139366436587,-11.88097634709845" fill="none" id="id36" stroke="none" /><text fill="#e1ed5e" style="font-size:6.75px; font-family:Arial;" text-anchor="middle"><textPath startOffset="22.145653131862474" xlink:href="#id36">December</textPath></text></svg>