<?xml version="1.0" encoding="utf-8" ?>
<svg baseProfile="full" height="200mm" version="1.1" viewBox="0,0,200,200" width="200mm" xmlns="http://www.w3.org/2000/svg" xmlns:ev="http://www.w3.org/2001/xml-events" xmlns:xlink="http://www.w3.org/1999/xlink"><defs /><rect fill="#1a1a1a" height="200" width="200" x="0" y="0" /><rect fill="#1a1a1a" height="200" width="180" x="10" y="0" /><text alignment-baseline="middle" fill="#e1ed5e" style="dominant-baseline: central; font-size:9.0px; font-family:Arial;" text-anchor="middle" x="100.0" y="100.0">2026</text><line stroke="#e1ed5e" stroke-width="0.3" x1="100.0" x2="100.0" y1="15.0" y2="10.0" /><path d="M 100.0 14.0 a86.0,86.0 0 0,1 42.46469731375804,11.215312516191453" fill="none" id="id49" stroke="none" /><text fill="#e1ed5e" style="font-size:6.75px; font-family:Arial;" text-anchor="middle"><textPath startOffset="22.20632615414155" xlink:href="#id49">January</textPath></text><path d="M 100.0 79.0 l 0.0 -63.0 a84.0,84.0 0 0,0 1.4459219170901134,0.012445506434235476 l -1.084441437817585 62.990665870174325" fill="red" stroke="none" /><path d="M 101.44485096284872 79.0497635885617 l 0.5079813456502665 -7.365693457400521 a28.38318936205225,28.38318936205225 0 0,0 0.4871228525366697,0.037810108602789265 l -0.6346943875492774 7.355858086609268" fill="red" stroke="none" /><path d="M 103.2404852339499 79.25152402106235 l 2.827389106872562 -18.103466219331715 a39.322926030417364,39.322926030417364 0 0,0 0.6678732973433928,0.11020481662089392 l -3.13859161035483 18.052115139771196" fill="red" stroke="none" /><path d="M 103.59715602781102 79.31037775812273 l 5.760287854051233 -33.131223328479635 a54.6282452025544,54.6282452025544 0 0,0 0.9250509771245427,0.16904715329246786 l -6.329733952278677 33.02716069383643" fill="red" stroke="none" /><path d="M 104.307194497241 79.44645832069477 l 7.914541940977051 -37.76747666275145 a59.58785129554327,59.58785129554327 0 0,0 1.0020896779561301,0.21901799035649683 l -8.563474343086709 37.62564517429909" fill="red" stroke="none" /><path d="M 107.4271985657038 80.35727306442388 l 2.453841220238286 -6.489678794232437 a27.93810259267263,27.93810259267263 0 0,0 0.44836242436652984,0.17395765492601797 l -2.5651868096044828 6.446478435415872" fill="red" stroke="none" /><path d="M 107.76421540070413 80.48803036053334 l 5.537038876475372 -13.91493265894401 a35.97611933788411,35.97611933788411 0 0,0 0.5734184500953786,0.2339117834737377 l -5.775741196159138 13.817559989286694" fill="red" stroke="none" /><path d="M 108.76106565485865 80.91482961587045 l 5.323412635848454 -11.59656155799407 a33.76005337213982,33.76005337213982 0 0,0 0.5260488119548872,0.24698697075729187 l -5.522239659102939 11.503209604596776" fill="red" stroke="none" /><path d="M 109.73455568895987 81.39251694778311 l 3.1228364635318093 -5.969263356920805 a27.736780581423243,27.736780581423243 0 0,0 0.42114332770210244,0.22496018054140113 l -3.225124837762223 5.91462444987765" fill="red" stroke="none" /><line stroke="#e1ed5e" stroke-width="0.3" x1="143.23703022742887" x2="145.7803849466894" y1="26.81831364943548" y2="22.513508569990506" /><path d="M 143.74570117128098 25.957352633546492 a86.0,86.0 0 0,1 28.547481713284135,27.462654790039103" fill="none" id="id50" stroke="none" /><text fill="#e1ed5e" style="font-size:6.75px; font-family:Arial;" text-anchor="middle"><textPath startOffset="19.985693538727396" xlink:href="#id50">February</textPath></text><path d="M 110.99172775467656 82.1063720568725 l 7.323757848274812 -11.922474883608116 a34.9922420065704,34.9922420065704 0 0,0 0.510521560303235,0.31968855422654785 l -7.52789856095031 11.794641988058624" fill="red" stroke="none" /><path d="M 111.60114157652 82.49532879139004 l 13.142696369147515 -19.830684525231852 a44.79047113007377,44.79047113007377 0 0,0 0.639000708851877,0.43145613105448793 l -13.482101772405935 19.601516481878697" fill="red" stroke="none" /><path d="M 111.90073688211348 82.69761687909136 l 4.9902245500752604 -7.2552462826513935 a29.80573334152816,29.80573334152816 0 0,0 0.42021664306189627,0.29438861274139383 l -5.114372332720808 7.168272827146064" fill="red" stroke="none" /><path d="M 112.19680574252982 82.90503203632743 l 4.079185544762432 -5.717361387697738 a28.02338778269688,28.02338778269688 0 0,0 0.3902652861277961,0.28354432757602277 l -4.176996147244017 5.646297825305041" fill="red" stroke="none" /><path d="M 113.06298171725822 83.55741782278167 l 7.563799034293965 -9.520673754678324 a33.15953471865626,33.15953471865626 0 0,0 0.44385869117128746,0.3589028599575701 l -7.726561124029744 9.389064797456625" fill="red" stroke="none" /><path d="M 114.68862486808459 84.99185889309783 l 11.758873488916496 -12.014659926629532 a37.8113996704885,37.8113996704885 0 0,0 0.4612346162449643,0.45925392822293004 l -11.963943905328783 11.810470147756485" fill="red" stroke="none" /><path d="M 115.4437574822437 85.77008943001954 l 18.452280792264705 -17.001970264554288 a46.09090790133688,46.09090790133688 0 0,0 0.5325834243828573,0.5880919192561493 l -18.7422078572636 16.68182555802859" fill="red" stroke="none" /><path d="M 115.68641384162765 86.03803664274999 l 16.15380635695884 -14.37797413182166 a42.625716172035936,42.625716172035936 0 0,0 0.48310796522694527,0.5522759179104482 l -16.398906185763632 14.097782657708263" fill="red" stroke="none" /><path d="M 115.9244219780498 86.31012108654704 l 16.421259220581337 -14.11699907513455 a42.65519377139991,42.65519377139991 0 0,0 0.47385733269133445,0.560897619609922 l -16.66182716675979 13.832242505895522" fill="red" stroke="none" /><path d="M 116.60985879189232 87.15038557335679 l 3.9569415635731464 -3.061144229925207 a26.002798270362007,26.002798270362007 0 0,0 0.2708303620584275,0.3563810100906911 l -4.009047865855687 2.992578443953482" fill="red" stroke="none" /><line stroke="#e1ed5e" stroke-width="0.3" x1="172.23445277983987" x2="176.4835382374775" y1="55.19839476539836" y2="52.563006222186495" /><path d="M 173.08426987136738 54.67131705675599 a86.0,86.0 0 0,1 12.851231095245387,41.99856678651699" fill="none" id="id51" stroke="none" /><text fill="#e1ed5e" style="font-size:6.75px; font-family:Arial;" text-anchor="middle"><textPath startOffset="22.20632615414155" xlink:href="#id51">March</textPath></text><path d="M 118.3937258080291 89.86733742301442 l 13.229903441044884 -7.288036632344056 a36.10449678121586,36.10449678121586 0 0,0 0.2951833180537033,0.5469298577769903 l -13.353394858317053 7.059225791234607" fill="red" stroke="none" /><path d="M 119.196687751892 91.48605970444005 l 7.045041262247973 -3.124552603124142 a28.706843410662135,28.706843410662135 0 0,0 0.196449528057313,0.45343259597786073 l -7.097781500147966 3.0028208625596786" fill="red" stroke="none" /><line stroke="#e1ed5e" stroke-width="0.3" x1="184.98032266829074" x2="189.97916517819016" y1="98.17113171792111" y2="98.06355123074" /><path d="M 185.9800911702706 98.14961562048488 a86.0,86.0 0 0,1 -9.607161424134198,41.387399972396054" fill="none" id="id52" stroke="none" /><text fill="#e1ed5e" style="font-size:6.75px; font-family:Arial;" text-anchor="middle"><textPath startOffset="21.466115282336823" xlink:href="#id52">April</textPath></text><path d="M 120.9904718944345 100.63252640178507 l 36.36467134880681 1.0958121778317975 a57.3811781919692,57.3811781919692 0 0,0 -0.038248290912981965,0.9870184360039517 l -36.34042092504262 -1.7216078608497554" fill="red" stroke="none" /><path d="M 120.76222939487914 103.15116336523771 l 7.4490178018938105 1.130566065806051 a28.53432451133365,28.53432451133365 0 0,0 -0.07788273435596814,0.48497586117948904 l -7.428453313176553 -1.2586211566787449" fill="red" stroke="none" /><path d="M 120.64145759157962 103.86396538481128 l 12.27725216249138 2.2982329211004027 a33.49050820507432,33.49050820507432 0 0,0 -0.11094937621457578,0.5657284790127844 l -12.235872853301139 -2.509225127181132" fill="red" stroke="none" /><path d="M 120.23288151984713 105.62410040840565 l 15.19007098009774 4.2223587539459935 a36.7659940957566,36.7659940957566 0 0,0 -0.17473890109327161,0.6082890382958717 l -15.115139442118368 -4.483205267746447" fill="red" stroke="none" /><path d="M 120.02730092923936 106.31721596034902 l 12.241087776896272 3.861209024094862 a33.83562094678052,33.83562094678052 0 0,0 -0.17998576435392258,0.553939223877976 l -12.172809761526104 -4.071347147950633" fill="red" stroke="none" /><path d="M 119.79798401119884 107.00284435728193 l 20.13150728645426 7.1208165500477865 a42.353772827395055,42.353772827395055 0 0,0 -0.2490315904323501,0.6852279820575873 l -20.005951435016684 -7.466292329111505" fill="red" stroke="none" /><path d="M 119.41010516605496 108.01547362559984 l 11.602354256457044 4.791234449370014 a33.552710935935586,33.552710935935586 0 0,0 -0.22504125779355302,0.5319310573110695 l -11.518162017471182 -4.990240032347248" fill="red" stroke="none" /><path d="M 118.81262510543309 109.33194174019688 l 7.1247945963484876 3.534231278801799 a28.95320619449902,28.95320619449902 0 0,0 -0.2253129271551174,0.4445637807199843 l -7.062902999407101 -3.6563492712244776" fill="red" stroke="none" /><line stroke="#e1ed5e" stroke-width="0.3" x1="174.80103733775053" x2="179.2010983576182" y1="140.37084112569926" y2="142.7455964860345" /><path d="M 175.68104954172406 140.8457921977663 a86.0,86.0 0 0,1 -30.038265399797805,32.042727171017184" fill="none" id="id53" stroke="none" /><text fill="#e1ed5e" style="font-size:6.75px; font-family:Arial;" text-anchor="middle"><textPath startOffset="22.206326154141568" xlink:href="#id53">May</textPath></text><path d="M 118.48025628344425 109.97397251340804 l 11.103937994370119 5.9929024061020115 a33.617936369782484,33.617936369782484 0 0,0 -0.27922672230705453,0.5068776078714192 l -10.999134862611555 -6.1831505323712355" fill="red" stroke="none" /><path d="M 117.94076556474637 110.91462005526583 l 6.561163368830162 3.991613681861383 a28.679963837004816,28.679963837004816 0 0,0 -0.2602165354282622,0.4195519098590079 l -6.491482193733936 -4.103961923085665" fill="red" stroke="none" /><path d="M 117.55443506779139 111.5257021239791 l 10.46752924641161 6.872657741606191 a33.52208420981675,33.52208420981675 0 0,0 -0.3208492774444509,0.47962613637782553 l -10.347676863556439 -7.051820792189823" fill="red" stroke="none" /><path d="M 117.14729908036423 112.12312394758627 l 10.24058705028448 7.240085189206867 a33.54146947855102,33.54146947855102 0 0,0 -0.3373636260612823,0.46856856994254475 l -10.114443631847596 -7.415287364600543" fill="red" stroke="none" /><path d="M 116.498646956653 112.99209946851258 l 19.705897071965474 15.517695211485622 a46.082289450675376,46.082289450675376 0 0,0 -0.49611334363339366,0.6189776770964831 l -19.435865816277225 -15.854600722160356" fill="red" stroke="none" /><path d="M 115.80600337817218 113.82643327865902 l 9.527411577825294 8.334182737240331 a33.658205768235646,33.658205768235646 0 0,0 -0.3852119949100329,0.43278975988574225 l -9.382540733266922 -8.49694666686694" fill="red" stroke="none" /><path d="M 113.48314897796784 116.09983520530334 l 6.4288880147962715 7.67654779760282 a31.012990921581416,31.012990921581416 0 0,0 -0.41222153187550864,0.33923025683453645 l -6.295796354376072 -7.786073173294534" fill="red" stroke="none" /><path d="M 112.34349029814194 116.9893568818739 l 5.922035559423517 8.150982676377918 a31.075168671426276,31.075168671426276 0 0,0 -0.4354558534517732,0.31068618936784265 l -5.780852378122859 -8.25171312758998" fill="red" stroke="none" /><line stroke="#e1ed5e" stroke-width="0.3" x1="143.8653032363475" x2="146.44561519142675" y1="172.8068346515853" y2="177.08958963109032" /><path d="M 144.38136562736335 173.6633856474863 a86.0,86.0 0 0,1 -40.68145358897372,12.25698825130547" fill="none" id="id54" stroke="none" /><text fill="#e1ed5e" style="font-size:6.75px; font-family:Arial;" text-anchor="middle"><textPath startOffset="21.466115282336833" xlink:href="#id54">June</textPath></text><path d="M 110.8373102113329 117.98757091392108 l 2.8600505263195837 4.7470599859523075 a26.542063471607886,26.542063471607886 0 0,0 -0.393368710550873,0.23240916787757987 l -2.7779139447403285 -4.795587726123637" fill="red" stroke="none" /><path d="M 110.21172684928248 118.3499491758327 l 3.2766049429550734 5.8878909571237115 a27.738204499358623,27.738204499358623 0 0,0 -0.41921301656280174,0.22858836152443832 l -3.1747691145236225 -5.943419970407921" fill="red" stroke="none" /><path d="M 108.92500713936063 119.00905698771935 l 1.066906964479163 2.2723674022553175 a23.51036732007225,23.51036732007225 0 0,0 -0.36780514742416665,0.16884130347914916 l -1.0276338212875769 -2.2903957760685407" fill="red" stroke="none" /><path d="M 108.2653958097858 119.30500536409082 l 3.061557288559865 7.150701701199136 a28.778538927759264,28.778538927759264 0 0,0 -0.4570697183986213,0.19105517936007546 l -2.9380161106637823 -7.202341923579184" fill="red" stroke="none" /><path d="M 107.59598834532513 119.57807347666477 l 2.0675760315759035 5.329017584617081 a26.716056250904572,26.716056250904572 0 0,0 -0.4301663905844973,0.16265212104418247 l -1.9755394202311316 -5.363817955767894" fill="red" stroke="none" /><path d="M 106.91757812671514 119.82793768551818 l 6.446689680033475 18.478224446779805 a40.570502970956596,40.570502970956596 0 0,0 -0.6613576722342189,0.2243684302422726 l -6.127662274862029 -18.5864558639202" fill="red" stroke="none" /><path d="M 106.2309692047433 120.05430185196036 l 1.9917363979068823 6.410380411245565 a27.71267390058745,27.71267390058745 0 0,0 -0.4567642839128554,0.13761933184838832 l -1.8810971395537812 -6.443715112199679" fill="red" stroke="none" /><path d="M 105.18746579009965 120.34920634021253 l 2.0162623063719884 7.909322079128005 a29.162272320835555,29.162272320835555 0 0,0 -0.4874914241739664,0.1198135314545374 l -1.8798175974548108 -7.942856868896572" fill="red" stroke="none" /><path d="M 104.48393922423573 120.51570834832081 l 1.1573913703326113 5.295500811042866 a26.4205058457561,26.4205058457561 0 0,0 -0.4451333600754067,0.09328202355439388 l -1.0660665488278265 -5.314638815323802" fill="red" stroke="none" /><path d="M 103.41894727170886 120.7198165907248 l 0.8832731785337452 5.352892807141297 a26.42527721989044,26.42527721989044 0 0,0 -0.44943625319750924,0.07019269962606933 l -0.7910010617277188 -5.367303814114472" fill="red" stroke="none" /><path d="M 102.70371172650421 120.8252237178851 l 1.047285122386464 8.066668778446353 a29.13436852550542,29.13436852550542 0 0,0 -0.4978821862151851,0.060286599056981686 l -0.9082755131198986 -8.083500906228686" fill="red" stroke="none" /><path d="M 101.98527174616119 120.90594882070398 l 1.1099987506778999 11.688866835277771 a32.74145242801601,32.74145242801601 0 0,0 -0.5615247684449982,0.04845071979443661 l -0.9086296644913601 -11.706241807350871" fill="red" stroke="none" /><path d="M 100.90346689309514 120.98055641714683 l 0.3348586135719559 7.776178726091013 a28.78338524494283,28.78338524494283 0 0,0 -0.4951833951859975,0.01705511736105817 l -0.20095486671130608 -7.7807906418781645" fill="red" stroke="none" /><line stroke="#e1ed5e" stroke-width="0.3" x1="102.19456741930631" x2="102.32365962044197" y1="184.97166512339345" y2="189.96999836594603" /><path d="M 102.22038585953345 185.97133177190398 a86.0,86.0 0 0,1 -42.740103519485714,-10.115201625700543" fill="none" id="id55" stroke="none" /><text fill="#e1ed5e" style="font-size:6.75px; font-family:Arial;" text-anchor="middle"><textPath startOffset="22.20632615414155" xlink:href="#id55">July</textPath></text><path d="M 99.81925306533755 120.99922214144158 l -0.06848568771225556 7.956683594467831 a28.956978327976955,28.956978327976955 0 0,0 -0.49839139174453734,-0.008580259789177045 l 0.20543676934946084 -7.954325857399494" fill="red" stroke="none" /><path d="M 99.09653310690486 120.98055641714683 l -1.2339681560741025 28.655547550594246 a49.68210387741061,49.68210387741061 0 0,0 -0.8540872517174141,-0.04414655518156384 l 1.7270434762050055 -28.63006118865048" fill="red" stroke="none" /><path d="M 97.65516085044442 120.86867818915974 l -1.0221509509684445 9.096973351262458 a30.15421852044974,30.15421852044974 0 0,0 -0.5153105764907295,-0.06239693440506879 l 1.1785889505105633 -9.07803088813204" fill="red" stroke="none" /><path d="M 97.2962882734958 120.8252237178851 l -2.0516170880160916 15.802492707539315 a36.935115576853306,36.935115576853306 0 0,0 -0.6297813747276707,-0.08728195995629534 l 2.3233270539305932 -15.764836182090415" fill="red" stroke="none" /><path d="M 96.93821686468263 120.77559828337769 l -1.0910355704300758 7.403175118012268 a28.48313840870925,28.48313840870925 0 0,0 -0.4844359776888436,-0.07565893678592697 l 1.2183074117274366 -7.3832978738792345" fill="red" stroke="none" /><path d="M 96.58105272829116 120.7198165907248 l -2.218989190281034 13.447721004613177 a34.62956761032787,34.62956761032787 0 0,0 -0.5873026724712598,-0.10211009769687737 l 2.450140834224344 -13.407532328395295" fill="red" stroke="none" /><path d="M 96.22490169976321 120.6578951692458 l -4.67911213106936 25.604792299769805 a47.028820162455915,47.028820162455915 0 0,0 -0.7950835336264518,-0.1523796515342643 l 5.119163279267507 -25.520455449887073" fill="red" stroke="none" /><path d="M 95.51606077576429 120.51570834832081 l -4.0324756023692006 18.4500924840316 a39.885623425055954,39.885623425055954 0 0,0 -0.6694704088683934,-0.15236928544992012 l 4.349466160630457 -18.377946465003994" fill="red" stroke="none" /><path d="M 95.16358092515715 120.4354850818985 l -4.458536648122149 18.838805684505004 a40.35921353415955,40.35921353415955 0 0,0 -0.6746652067387653,-0.16581629329345993 l 4.782155139604125 -18.759268132897514" fill="red" stroke="none" /><path d="M 94.46302465271185 120.25689768951611 l -11.809093474342422 43.203298427696204 a65.78816454955856,65.78816454955856 0 0,0 -1.0897929502093517,-0.307986373376715 l 12.551017592656388 -42.99362326098097" fill="red" stroke="none" /><path d="M 94.11515582081647 120.15858648285463 l -13.564717334360619 46.46606081218683 a69.40554063083015,69.40554063083015 0 0,0 -1.143952120230221,-0.34466338984303274 l 14.362544429031086 -46.225682053238074" fill="red" stroke="none" /><line stroke="#e1ed5e" stroke-width="0.3" x1="58.666819895761336" x2="56.23545636021788" y1="174.27360380694188" y2="178.64263932499728" /><path d="M 58.180547188652646 175.14741091055294 a86.0,86.0 0 0,1 -31.652253787137756,-30.449443065178592" fill="none" id="id56" stroke="none" /><text fill="#e1ed5e" style="font-size:6.75px; font-family:Arial;" text-anchor="middle"><textPath startOffset="22.20632615414155" xlink:href="#id56">August</textPath></text><line stroke="#e1ed5e" stroke-width="0.3" x1="26.63291911575756" x2="22.317208475507996" y1="142.92168965132927" y2="145.44649492493687" /><path d="M 25.769776987707644 143.4266507060508 a86.0,86.0 0 0,1 -11.730757126820373,-40.83630448921669" fill="none" id="id57" stroke="none" /><text fill="#e1ed5e" style="font-size:6.75px; font-family:Arial;" text-anchor="middle"><textPath startOffset="21.46611528233685" xlink:href="#id57">September</textPath></text><line stroke="#e1ed5e" stroke-width="0.3" x1="15.007084014347285" x2="10.007500721073583" y1="101.09737516637583" y2="101.16192664675087" /><path d="M 14.007167355692545 101.11028546245083 a86.0,86.0 0 0,1 10.666146001902534,-42.60595125391555" fill="none" id="id58" stroke="none" /><text fill="#e1ed5e" style="font-size:6.75px; font-family:Arial;" text-anchor="middle"><textPath startOffset="22.20632615414155" xlink:href="#id58">October</textPath></text><line stroke="#e1ed5e" stroke-width="0.3" x1="26.266209847984243" x2="21.928928074336255" y1="57.711370442889674" y2="55.22380399835377" /><path d="M 25.398753493254645 57.213857153982495 a86.0,86.0 0 0,1 29.58750427330803,-30.492523968695096" fill="none" id="id59" stroke="none" /><text fill="#e1ed5e" style="font-size:6.75px; font-family:Arial;" text-anchor="middle"><textPath startOffset="21.46611528233685" xlink:href="#id59">November</textPath></text><line stroke="#e1ed5e" stroke-width="0.3" x1="56.762969772571076" x2="54.21961505331055" y1="26.818313649435495" y2="22.513508569990535" /><path d="M 56.25429882871897 25.957352633546506 a86.0,86.0 0 0,1 42.265352541879196,-11.944610805530505" fill="none" id="id60" stroke="none" /><text fill="#e1ed5e" style="font-size:6.75px; font-family:Arial;" text-anchor="middle"><textPath startOffset="22.20632615414155" xlink:href="#id60">December</textPath></text></svg>